<?xml version="1.0" encoding="utf-8"?>
<!DOCTYPE svg PUBLIC "-//W3C//DTD SVG 1.1//EN" "http://www.w3.org/Graphics/SVG/1.1/DTD/svg11.dtd">
<svg style="width:308px;height:308px;" version="1.1" id="图形" xmlns="http://www.w3.org/2000/svg" xmlns:xlink="http://www.w3.org/1999/xlink" x="0px" y="0px" width="1024px" height="1024px" viewBox="0 0 1024 1024" enable-background="new 0 0 1024 1024" xml:space="preserve">
  <path class="svgpath" data-index="path_0" fill="#9d55b8" d="M724.045117 315.679021c2.723021 1.533938 5.445018 3.191695 8.108686 5.026485l8.108686 5.506416 0.146333 9.700952c0.445139 28.172671-2.927682 52.024939-10.3221 70.373861-6.809086 16.803728-16.872289 29.350498-30.362549 36.926041-9.173949 32.786763-19.947328 63.149312-35.217118 88.658314-17.576325 29.356638-40.777769 51.960471-73.564533 64.092801-14.678319 5.386689-52.137503 7.873326-88.1835 7.341206-34.794492-0.533143-69.713828-3.968385-83.565314-10.356892-29.825312-13.73483-50.778551-36.814501-66.63879-65.57762-13.613056-24.55835-23.315032-53.144437-31.779829-83.32586-13.96405-7.282877-24.442716-19.770296-31.48614-36.69375-7.7229-18.463532-11.243076-42.731263-10.768262-71.437077l0.11768-9.765421 8.107663-5.441948c2.07322-1.42035 4.140301-2.719951 6.212498-3.906987-9.109481-112.8626-5.678332-154.583859 36.223029-202.282255 81.733594-66.937595 269.10217-64.571709 351.900004-3.90494C737.481141 163.871395 741.387105 223.531229 724.045117 315.679021L724.045117 315.679021 724.045117 315.679021zM552.418077 642.068999l1.182943 25.859997-15.303559 25.273642 21.340049 140.261651 87.528583-188.082844 133.248926-4.555764c68.804108 65.103829 112.954698 218.442323 102.094338 318.46344l-742.656006 0c1.833767-87.826366 17.991788-237.855484 105.462042-314.142014l120.378792 1.124615 112.74492 186.010647 21.187576-139.079731-15.328119-25.273642 1.183966-25.859997C514.655994 640.470593 523.238472 640.470593 552.418077 642.068999L552.418077 642.068999 552.418077 642.068999zM652.107643 275.60938c-52.938752 10.356892-131.767178 19.408045-194.085564-15.625901-23.974042-13.490259-59.067339 14.145176-87.768037 11.309591-8.909936 17.634653-15.568596 36.926041-19.414185 57.343067l-3.197835 16.930618-17.043182-1.656734c-3.136437-0.297782-6.450929 0.112564-9.882078 1.244342-1.540077 0.473791-3.079131 1.121545-4.619209 1.829673 0.446162 18.767454 3.079131 34.326841 7.932678 45.984357 4.264121 10.240235 10.240235 16.930618 17.992811 19.354833l9.94143 3.080155 2.720974 9.999758c8.344047 30.956067 17.695028 60.128509 30.837363 83.862073 12.189636 22.072737 27.815537 39.58971 49.414482 49.532163 9.056269 4.144394 37.99642 6.514374 68.237195 6.984072 32.136963 0.473791 64.214575-1.241272 74.806828-5.146212 23.792916-8.817838 40.953778-25.807808 54.273145-48.05553 14.321185-23.969948 24.502068-54.332497 33.436563-87.65138l2.545988-9.525967 9.467638-3.313469c7.487539-2.668785 13.31425-9.472755 17.459668-19.829647 4.672421-11.539836 7.219432-26.867954 7.663548-45.275205-1.387605-0.6498-2.810002-1.241272-4.17407-1.656734-3.314492-1.123591-6.568609-1.656734-9.643647-1.472539l-16.574507 1.063216-3.074015-16.335053C665.866009 309.818541 659.9472 292.002762 652.107643 275.60938L652.107643 275.60938zM652.107643 275.60938" />

</svg>
